<mxfile host="app.diagrams.net" modified="2022-12-06T01:15:19.224Z" agent="5.0 (Windows NT 10.0; Win64; x64) AppleWebKit/537.36 (KHTML, like Gecko) Chrome/108.0.0.0 Safari/537.36" etag="WV0rIi6M8tkCKaCpgzN6" version="20.6.0" type="github">
  <diagram id="C5RBs43oDa-KdzZeNtuy" name="Page-1">
    <mxGraphModel dx="1422" dy="794" grid="1" gridSize="10" guides="1" tooltips="1" connect="1" arrows="1" fold="1" page="1" pageScale="1" pageWidth="827" pageHeight="1169" math="0" shadow="0">
      <root>
        <mxCell id="WIyWlLk6GJQsqaUBKTNV-0" />
        <mxCell id="WIyWlLk6GJQsqaUBKTNV-1" parent="WIyWlLk6GJQsqaUBKTNV-0" />
        <mxCell id="Nz6Y_7gJ12A8d2CmzSYI-9" value="" style="edgeStyle=orthogonalEdgeStyle;rounded=0;orthogonalLoop=1;jettySize=auto;html=1;" edge="1" parent="WIyWlLk6GJQsqaUBKTNV-1" source="Nz6Y_7gJ12A8d2CmzSYI-0" target="Nz6Y_7gJ12A8d2CmzSYI-1">
          <mxGeometry relative="1" as="geometry" />
        </mxCell>
        <mxCell id="Nz6Y_7gJ12A8d2CmzSYI-0" value="INICIO" style="strokeWidth=2;html=1;shape=mxgraph.flowchart.start_1;whiteSpace=wrap;" vertex="1" parent="WIyWlLk6GJQsqaUBKTNV-1">
          <mxGeometry x="364" y="80" width="100" height="60" as="geometry" />
        </mxCell>
        <mxCell id="Nz6Y_7gJ12A8d2CmzSYI-10" value="" style="edgeStyle=orthogonalEdgeStyle;rounded=0;orthogonalLoop=1;jettySize=auto;html=1;" edge="1" parent="WIyWlLk6GJQsqaUBKTNV-1" source="Nz6Y_7gJ12A8d2CmzSYI-1" target="Nz6Y_7gJ12A8d2CmzSYI-2">
          <mxGeometry relative="1" as="geometry" />
        </mxCell>
        <mxCell id="Nz6Y_7gJ12A8d2CmzSYI-1" value="" style="verticalLabelPosition=bottom;verticalAlign=top;html=1;shape=card;whiteSpace=wrap;size=20;arcSize=12;" vertex="1" parent="WIyWlLk6GJQsqaUBKTNV-1">
          <mxGeometry x="364" y="170" width="100" height="60" as="geometry" />
        </mxCell>
        <mxCell id="Nz6Y_7gJ12A8d2CmzSYI-11" value="" style="edgeStyle=orthogonalEdgeStyle;rounded=0;orthogonalLoop=1;jettySize=auto;html=1;" edge="1" parent="WIyWlLk6GJQsqaUBKTNV-1" source="Nz6Y_7gJ12A8d2CmzSYI-2" target="Nz6Y_7gJ12A8d2CmzSYI-3">
          <mxGeometry relative="1" as="geometry" />
        </mxCell>
        <mxCell id="Nz6Y_7gJ12A8d2CmzSYI-2" value="" style="verticalLabelPosition=bottom;verticalAlign=top;html=1;shape=card;whiteSpace=wrap;size=20;arcSize=12;" vertex="1" parent="WIyWlLk6GJQsqaUBKTNV-1">
          <mxGeometry x="364" y="260" width="100" height="60" as="geometry" />
        </mxCell>
        <mxCell id="Nz6Y_7gJ12A8d2CmzSYI-12" style="edgeStyle=orthogonalEdgeStyle;rounded=0;orthogonalLoop=1;jettySize=auto;html=1;" edge="1" parent="WIyWlLk6GJQsqaUBKTNV-1" source="Nz6Y_7gJ12A8d2CmzSYI-3" target="Nz6Y_7gJ12A8d2CmzSYI-6">
          <mxGeometry relative="1" as="geometry" />
        </mxCell>
        <mxCell id="Nz6Y_7gJ12A8d2CmzSYI-13" style="edgeStyle=orthogonalEdgeStyle;rounded=0;orthogonalLoop=1;jettySize=auto;html=1;exitX=0.5;exitY=1;exitDx=0;exitDy=0;exitPerimeter=0;entryX=0.5;entryY=0;entryDx=0;entryDy=0;entryPerimeter=0;" edge="1" parent="WIyWlLk6GJQsqaUBKTNV-1" source="Nz6Y_7gJ12A8d2CmzSYI-3" target="Nz6Y_7gJ12A8d2CmzSYI-4">
          <mxGeometry relative="1" as="geometry" />
        </mxCell>
        <mxCell id="Nz6Y_7gJ12A8d2CmzSYI-14" style="edgeStyle=orthogonalEdgeStyle;rounded=0;orthogonalLoop=1;jettySize=auto;html=1;exitX=0.5;exitY=1;exitDx=0;exitDy=0;exitPerimeter=0;entryX=0.5;entryY=0;entryDx=0;entryDy=0;entryPerimeter=0;" edge="1" parent="WIyWlLk6GJQsqaUBKTNV-1" source="Nz6Y_7gJ12A8d2CmzSYI-3" target="Nz6Y_7gJ12A8d2CmzSYI-5">
          <mxGeometry relative="1" as="geometry" />
        </mxCell>
        <mxCell id="Nz6Y_7gJ12A8d2CmzSYI-3" value="num1&amp;gt;num2" style="strokeWidth=2;html=1;shape=mxgraph.flowchart.decision;whiteSpace=wrap;" vertex="1" parent="WIyWlLk6GJQsqaUBKTNV-1">
          <mxGeometry x="364" y="360" width="100" height="100" as="geometry" />
        </mxCell>
        <mxCell id="Nz6Y_7gJ12A8d2CmzSYI-19" style="edgeStyle=orthogonalEdgeStyle;rounded=0;orthogonalLoop=1;jettySize=auto;html=1;entryX=0;entryY=0.5;entryDx=0;entryDy=0;entryPerimeter=0;" edge="1" parent="WIyWlLk6GJQsqaUBKTNV-1" source="Nz6Y_7gJ12A8d2CmzSYI-4" target="Nz6Y_7gJ12A8d2CmzSYI-8">
          <mxGeometry relative="1" as="geometry">
            <mxPoint x="280" y="620" as="targetPoint" />
            <Array as="points">
              <mxPoint x="280" y="650" />
            </Array>
          </mxGeometry>
        </mxCell>
        <mxCell id="Nz6Y_7gJ12A8d2CmzSYI-4" value="" style="strokeWidth=2;html=1;shape=mxgraph.flowchart.document2;whiteSpace=wrap;size=0.25;" vertex="1" parent="WIyWlLk6GJQsqaUBKTNV-1">
          <mxGeometry x="230" y="510" width="100" height="60" as="geometry" />
        </mxCell>
        <mxCell id="Nz6Y_7gJ12A8d2CmzSYI-17" style="edgeStyle=orthogonalEdgeStyle;rounded=0;orthogonalLoop=1;jettySize=auto;html=1;entryX=1;entryY=0.5;entryDx=0;entryDy=0;entryPerimeter=0;" edge="1" parent="WIyWlLk6GJQsqaUBKTNV-1" source="Nz6Y_7gJ12A8d2CmzSYI-5" target="Nz6Y_7gJ12A8d2CmzSYI-8">
          <mxGeometry relative="1" as="geometry">
            <Array as="points">
              <mxPoint x="540" y="650" />
            </Array>
          </mxGeometry>
        </mxCell>
        <mxCell id="Nz6Y_7gJ12A8d2CmzSYI-5" value="" style="strokeWidth=2;html=1;shape=mxgraph.flowchart.document2;whiteSpace=wrap;size=0.25;" vertex="1" parent="WIyWlLk6GJQsqaUBKTNV-1">
          <mxGeometry x="480" y="510" width="100" height="60" as="geometry" />
        </mxCell>
        <mxCell id="Nz6Y_7gJ12A8d2CmzSYI-15" value="" style="edgeStyle=orthogonalEdgeStyle;rounded=0;orthogonalLoop=1;jettySize=auto;html=1;" edge="1" parent="WIyWlLk6GJQsqaUBKTNV-1" source="Nz6Y_7gJ12A8d2CmzSYI-6" target="Nz6Y_7gJ12A8d2CmzSYI-7">
          <mxGeometry relative="1" as="geometry" />
        </mxCell>
        <mxCell id="Nz6Y_7gJ12A8d2CmzSYI-6" value="" style="strokeWidth=2;html=1;shape=mxgraph.flowchart.decision;whiteSpace=wrap;" vertex="1" parent="WIyWlLk6GJQsqaUBKTNV-1">
          <mxGeometry x="640" y="360" width="100" height="100" as="geometry" />
        </mxCell>
        <mxCell id="Nz6Y_7gJ12A8d2CmzSYI-16" style="edgeStyle=orthogonalEdgeStyle;rounded=0;orthogonalLoop=1;jettySize=auto;html=1;entryX=0.5;entryY=1;entryDx=0;entryDy=0;entryPerimeter=0;" edge="1" parent="WIyWlLk6GJQsqaUBKTNV-1" source="Nz6Y_7gJ12A8d2CmzSYI-7" target="Nz6Y_7gJ12A8d2CmzSYI-8">
          <mxGeometry relative="1" as="geometry">
            <mxPoint x="410" y="690" as="targetPoint" />
            <Array as="points">
              <mxPoint x="690" y="710" />
              <mxPoint x="414" y="710" />
            </Array>
          </mxGeometry>
        </mxCell>
        <mxCell id="Nz6Y_7gJ12A8d2CmzSYI-7" value="" style="strokeWidth=2;html=1;shape=mxgraph.flowchart.document2;whiteSpace=wrap;size=0.25;" vertex="1" parent="WIyWlLk6GJQsqaUBKTNV-1">
          <mxGeometry x="640" y="510" width="100" height="60" as="geometry" />
        </mxCell>
        <mxCell id="Nz6Y_7gJ12A8d2CmzSYI-8" value="" style="strokeWidth=2;html=1;shape=mxgraph.flowchart.start_1;whiteSpace=wrap;" vertex="1" parent="WIyWlLk6GJQsqaUBKTNV-1">
          <mxGeometry x="364" y="620" width="100" height="60" as="geometry" />
        </mxCell>
        <mxCell id="Nz6Y_7gJ12A8d2CmzSYI-20" value="Digite o primeiro numero" style="text;html=1;strokeColor=none;fillColor=none;align=center;verticalAlign=middle;whiteSpace=wrap;rounded=0;" vertex="1" parent="WIyWlLk6GJQsqaUBKTNV-1">
          <mxGeometry x="384" y="185" width="60" height="30" as="geometry" />
        </mxCell>
        <mxCell id="Nz6Y_7gJ12A8d2CmzSYI-21" value="Digite o segundo numero" style="text;html=1;strokeColor=none;fillColor=none;align=center;verticalAlign=middle;whiteSpace=wrap;rounded=0;" vertex="1" parent="WIyWlLk6GJQsqaUBKTNV-1">
          <mxGeometry x="384" y="275" width="60" height="30" as="geometry" />
        </mxCell>
        <mxCell id="Nz6Y_7gJ12A8d2CmzSYI-22" value="O primeiro numero e maior" style="text;html=1;strokeColor=none;fillColor=none;align=center;verticalAlign=middle;whiteSpace=wrap;rounded=0;" vertex="1" parent="WIyWlLk6GJQsqaUBKTNV-1">
          <mxGeometry x="240" y="520" width="60" height="30" as="geometry" />
        </mxCell>
        <mxCell id="Nz6Y_7gJ12A8d2CmzSYI-23" value="O segundo numero e maior" style="text;html=1;strokeColor=none;fillColor=none;align=center;verticalAlign=middle;whiteSpace=wrap;rounded=0;" vertex="1" parent="WIyWlLk6GJQsqaUBKTNV-1">
          <mxGeometry x="490" y="520" width="80" height="30" as="geometry" />
        </mxCell>
        <mxCell id="Nz6Y_7gJ12A8d2CmzSYI-24" value="num1=num2" style="text;html=1;strokeColor=none;fillColor=none;align=center;verticalAlign=middle;whiteSpace=wrap;rounded=0;" vertex="1" parent="WIyWlLk6GJQsqaUBKTNV-1">
          <mxGeometry x="660" y="395" width="60" height="30" as="geometry" />
        </mxCell>
        <mxCell id="Nz6Y_7gJ12A8d2CmzSYI-25" value="Os numeros sao iguais" style="text;html=1;strokeColor=none;fillColor=none;align=center;verticalAlign=middle;whiteSpace=wrap;rounded=0;" vertex="1" parent="WIyWlLk6GJQsqaUBKTNV-1">
          <mxGeometry x="660" y="520" width="60" height="30" as="geometry" />
        </mxCell>
        <mxCell id="Nz6Y_7gJ12A8d2CmzSYI-26" value="FIM" style="text;html=1;strokeColor=none;fillColor=none;align=center;verticalAlign=middle;whiteSpace=wrap;rounded=0;" vertex="1" parent="WIyWlLk6GJQsqaUBKTNV-1">
          <mxGeometry x="384" y="635" width="60" height="30" as="geometry" />
        </mxCell>
        <mxCell id="Nz6Y_7gJ12A8d2CmzSYI-27" value="V" style="text;html=1;strokeColor=none;fillColor=none;align=center;verticalAlign=middle;whiteSpace=wrap;rounded=0;" vertex="1" parent="WIyWlLk6GJQsqaUBKTNV-1">
          <mxGeometry x="300" y="450" width="60" height="30" as="geometry" />
        </mxCell>
        <mxCell id="Nz6Y_7gJ12A8d2CmzSYI-29" value="Text" style="text;html=1;strokeColor=none;fillColor=none;align=center;verticalAlign=middle;whiteSpace=wrap;rounded=0;" vertex="1" parent="WIyWlLk6GJQsqaUBKTNV-1">
          <mxGeometry x="380" y="370" width="60" height="30" as="geometry" />
        </mxCell>
        <mxCell id="Nz6Y_7gJ12A8d2CmzSYI-30" value="F" style="text;html=1;strokeColor=none;fillColor=none;align=center;verticalAlign=middle;whiteSpace=wrap;rounded=0;" vertex="1" parent="WIyWlLk6GJQsqaUBKTNV-1">
          <mxGeometry x="464" y="450" width="60" height="30" as="geometry" />
        </mxCell>
      </root>
    </mxGraphModel>
  </diagram>
</mxfile>
